<?xml version="1.0" encoding="utf-8"?>
<svg xmlns="http://www.w3.org/2000/svg" viewBox="0 0 48 48" fill="#ffffff"><path d="M 19.5 5 C 13.956523 5 9.3308267 8.9611977 8.2597656 14.197266 C 6.3905919 14.744141 5 16.464703 5 18.5 L 5 19 C 5 28.96927 12.724878 37.154159 22.5 37.923828 L 22.5 40 L 16.5 40 A 1.50015 1.50015 0 1 0 16.5 43 L 31.5 43 A 1.50015 1.50015 0 1 0 31.5 40 L 25.5 40 L 25.5 37.923828 C 35.275122 37.154159 43 28.96927 43 19 L 43 18.5 C 43 16.464703 41.609408 14.744141 39.740234 14.197266 C 38.669173 8.9611977 34.043477 5 28.5 5 L 19.5 5 z M 19.5 8 L 28.5 8 C 32.475041 8 35.780495 10.703171 36.71875 14.375 C 35.126595 15.071374 34 16.66423 34 18.5 L 34 19 C 34 19.989497 33.853156 20.942438 33.587891 21.84375 C 32.578146 20.717244 31.118793 20 29.5 20 L 18.5 20 C 16.881207 20 15.421854 20.717244 14.412109 21.84375 C 14.146844 20.942438 14 19.989497 14 19 L 14 18.5 C 14 16.66423 12.873405 15.071374 11.28125 14.375 C 12.219505 10.703171 15.524959 8 19.5 8 z M 9.5 17 C 10.346499 17 11 17.653501 11 18.5 L 11 19 C 11 21.598332 11.776293 24.016474 13.097656 26.050781 A 1.50015 1.50015 0 0 0 13.523438 26.658203 C 15.892269 29.887734 19.702035 32 24 32 C 28.296428 32 32.105587 29.88968 34.474609 26.662109 A 1.50015 1.50015 0 0 0 34.904297 26.048828 A 1.50015 1.50015 0 0 0 34.90625 26.042969 C 36.224711 24.010164 37 21.595224 37 19 L 37 18.5 C 37 17.653501 37.653501 17 38.5 17 C 39.346499 17 40 17.653501 40 18.5 L 40 19 C 40 27.854343 32.854343 35 24 35 C 15.145657 35 8 27.854343 8 19 L 8 18.5 C 8 17.653501 8.6535009 17 9.5 17 z M 18.5 23 L 29.5 23 C 30.745527 23 31.749268 23.875395 31.955078 25.054688 C 30.131505 27.450805 27.257077 29 24 29 C 20.742923 29 17.868495 27.450805 16.044922 25.054688 C 16.250732 23.875395 17.254473 23 18.5 23 z" fill="#ffffff"/></svg>
