<?xml version="1.0" encoding="utf-8"?>
<svg xmlns="http://www.w3.org/2000/svg" viewBox="0 0 48 48" fill="#ffffff"><path d="M 16.476562 10.978516 A 1.50015 1.50015 0 0 0 16.257812 11 L 7.5 11 C 4.4802259 11 2 13.480226 2 16.5 L 2 32.5 C 2 34.606405 3.2451033 36.393696 5 37.316406 L 5 39.5 A 1.50015 1.50015 0 1 0 8 39.5 L 8 38 L 16.253906 38 A 1.50015 1.50015 0 0 0 16.740234 38 L 31.253906 38 A 1.50015 1.50015 0 0 0 31.740234 38 L 40 38 L 40 39.5 A 1.50015 1.50015 0 1 0 43 39.5 L 43 37.316406 C 44.754897 36.393696 46 34.606405 46 32.5 L 46 16.5 C 46 13.480226 43.519774 11 40.5 11 L 31.746094 11 A 1.50015 1.50015 0 0 0 31.476562 10.978516 A 1.50015 1.50015 0 0 0 31.259766 11 L 16.746094 11 A 1.50015 1.50015 0 0 0 16.476562 10.978516 z M 7.5 14 L 15 14 L 15 20.253906 A 1.50015 1.50015 0 0 0 15 20.740234 L 15 28.253906 A 1.50015 1.50015 0 0 0 15 28.740234 L 15 35 L 7.5 35 C 6.1017741 35 5 33.898226 5 32.5 L 5 16.5 C 5 15.101774 6.1017741 14 7.5 14 z M 18 14 L 30 14 L 30 19 L 18 19 L 18 14 z M 33 14 L 40.5 14 C 41.898226 14 43 15.101774 43 16.5 L 43 32.5 C 43 33.898226 41.898226 35 40.5 35 L 33 35 L 33 28.746094 A 1.50015 1.50015 0 0 0 33 28.259766 L 33 20.746094 A 1.50015 1.50015 0 0 0 33 20.259766 L 33 14 z M 18 22 L 30 22 L 30 27 L 18 27 L 18 22 z M 11.5 23 A 1.5 1.5 0 0 0 11.5 26 A 1.5 1.5 0 0 0 11.5 23 z M 36.5 23 A 1.5 1.5 0 0 0 36.5 26 A 1.5 1.5 0 0 0 36.5 23 z M 18 30 L 30 30 L 30 35 L 18 35 L 18 30 z" fill="#ffffff"/></svg>
