<?xml version="1.0" encoding="utf-8"?>
<svg xmlns="http://www.w3.org/2000/svg" viewBox="0 0 48 48" fill="#ffffff"><path d="M 10.5 6 C 8.0324991 6 6 8.0324991 6 10.5 L 6 18.5 C 6 20.967501 8.0324991 23 10.5 23 L 18.5 23 C 20.967501 23 23 20.967501 23 18.5 L 23 10.5 C 23 8.0324991 20.967501 6 18.5 6 L 10.5 6 z M 29.5 6 C 27.032499 6 25 8.0324991 25 10.5 L 25 18.5 C 25 20.967501 27.032499 23 29.5 23 L 37.5 23 C 39.967501 23 42 20.967501 42 18.5 L 42 10.5 C 42 8.0324991 39.967501 6 37.5 6 L 29.5 6 z M 10.5 9 L 18.5 9 C 19.346499 9 20 9.6535009 20 10.5 L 20 18.5 C 20 19.346499 19.346499 20 18.5 20 L 10.5 20 C 9.6535009 20 9 19.346499 9 18.5 L 9 10.5 C 9 9.6535009 9.6535009 9 10.5 9 z M 29.5 9 L 37.5 9 C 38.346499 9 39 9.6535009 39 10.5 L 39 18.5 C 39 19.346499 38.346499 20 37.5 20 L 29.5 20 C 28.653501 20 28 19.346499 28 18.5 L 28 10.5 C 28 9.6535009 28.653501 9 29.5 9 z M 10.5 25 C 8.0324991 25 6 27.032499 6 29.5 L 6 37.5 C 6 39.967501 8.0324991 42 10.5 42 L 18.5 42 C 20.967501 42 23 39.967501 23 37.5 L 23 29.5 C 23 27.032499 20.967501 25 18.5 25 L 10.5 25 z M 29.5 25 C 27.032499 25 25 27.032499 25 29.5 L 25 37.5 C 25 39.967501 27.032499 42 29.5 42 L 37.5 42 C 39.967501 42 42 39.967501 42 37.5 L 42 29.5 C 42 27.032499 39.967501 25 37.5 25 L 29.5 25 z M 10.5 28 L 18.5 28 C 19.346499 28 20 28.653501 20 29.5 L 20 37.5 C 20 38.346499 19.346499 39 18.5 39 L 10.5 39 C 9.6535009 39 9 38.346499 9 37.5 L 9 29.5 C 9 28.653501 9.6535009 28 10.5 28 z M 29.5 28 L 37.5 28 C 38.346499 28 39 28.653501 39 29.5 L 39 37.5 C 39 38.346499 38.346499 39 37.5 39 L 29.5 39 C 28.653501 39 28 38.346499 28 37.5 L 28 29.5 C 28 28.653501 28.653501 28 29.5 28 z" fill="#ffffff"/></svg>
