<?xml version="1.0" encoding="utf-8"?>
<svg xmlns="http://www.w3.org/2000/svg" viewBox="0 0 48 48" fill="#ffffff"><path d="M 3.5 6 A 1.50015 1.50015 0 1 0 3.5 9 L 6.2558594 9 C 6.9837923 9 7.5905865 9.5029243 7.7285156 10.21875 L 8.0234375 11.763672 C 8.0244746 11.769537 8.0242827 11.77539 8.0253906 11.78125 L 11.251953 28.716797 C 11.835953 31.778797 14.521672 34 17.638672 34 L 36.361328 34 C 39.478328 34 42.165047 31.778797 42.748047 28.716797 L 45.974609 11.779297 C 46.057609 11.340297 45.94125 10.887969 45.65625 10.542969 C 45.37125 10.198969 44.947 10 44.5 10 L 10.740234 10 L 10.675781 9.6582031 C 10.272657 7.5455321 8.4069705 6 6.2558594 6 L 3.5 6 z M 20 36 A 3 3 0 0 0 20 42 A 3 3 0 0 0 20 36 z M 34 36 A 3 3 0 0 0 34 42 A 3 3 0 0 0 34 36 z" fill="#ffffff"/></svg>
