<?xml version="1.0" encoding="utf-8"?>
<svg xmlns="http://www.w3.org/2000/svg" viewBox="0 0 48 48" fill="#ffffff"><path d="M 11.226562 9 C 7.805835 9 5 11.805836 5 15.226562 L 5 18.279297 C 3.2635615 18.905096 2 20.559951 2 22.5 L 2 33.5 C 2 35.774587 3.7326612 37.659399 5.9355469 37.943359 L 5.4394531 38.439453 A 1.50015 1.50015 0 1 0 7.5605469 40.560547 L 10.121094 38 L 37.878906 38 L 40.439453 40.560547 A 1.50015 1.50015 0 1 0 42.560547 38.439453 L 42.064453 37.943359 C 44.267339 37.659399 46 35.774587 46 33.5 L 46 22.5 C 46 20.559951 44.736439 18.905096 43 18.279297 L 43 15.226562 C 43 11.805836 40.194164 9 36.773438 9 L 11.226562 9 z M 11.226562 12 L 36.773438 12 C 38.57271 12 40 13.42729 40 15.226562 L 40 18.279297 C 38.263561 18.905096 37 20.559951 37 22.5 L 37 28 L 11 28 L 11 22.5 C 11 20.559951 9.7364385 18.905096 8 18.279297 L 8 15.226562 C 8 13.42729 9.427291 12 11.226562 12 z M 6.3574219 21.013672 A 1.50015 1.50015 0 0 0 6.6425781 21.013672 C 7.4172797 21.083758 8 21.702702 8 22.5 L 8 29.5 A 1.50015 1.50015 0 0 0 9.5 31 L 38.5 31 A 1.50015 1.50015 0 0 0 40 29.5 L 40 22.5 C 40 21.702702 40.58272 21.083758 41.357422 21.013672 A 1.50015 1.50015 0 0 0 41.642578 21.013672 C 42.41728 21.083758 43 21.702702 43 22.5 L 43 33.5 C 43 34.346499 42.346499 35 41.5 35 L 38.689453 35 A 1.50015 1.50015 0 0 0 38.484375 34.984375 A 1.50015 1.50015 0 0 0 38.279297 35 L 9.7011719 35 A 1.50015 1.50015 0 0 0 9.4707031 34.986328 A 1.50015 1.50015 0 0 0 9.3105469 35 L 6.5 35 C 5.6535009 35 5 34.346499 5 33.5 L 5 22.5 C 5 21.702702 5.5827203 21.083758 6.3574219 21.013672 z" fill="#ffffff"/></svg>
