<?xml version="1.0" encoding="utf-8"?>
<svg xmlns="http://www.w3.org/2000/svg" viewBox="0 0 48 48" fill="#ffffff"><path d="M 41.660156 8.9785156 A 1.50015 1.50015 0 0 0 41.390625 9 L 6.6152344 9 A 1.50015 1.50015 0 0 0 6.1269531 9 L 3.5 9 A 1.50015 1.50015 0 1 0 3.5 12 L 4.7636719 12 L 3.1582031 36.09375 C 3.0190688 38.185794 4.7157766 40 6.8125 40 C 8.4849435 40 9.9590967 38.84943 10.365234 37.226562 L 14.386719 21.136719 C 14.555668 20.460921 15.146029 20 15.841797 20 L 32.15625 20 C 32.852785 20 33.443244 20.460914 33.611328 21.134766 A 1.50015 1.50015 0 0 0 33.611328 21.136719 L 37.632812 37.226562 A 1.50015 1.50015 0 0 0 37.634766 37.226562 C 38.040858 38.849384 39.515056 40 41.1875 40 C 43.284223 40 44.980931 38.185794 44.841797 36.09375 L 43.236328 12 L 44.5 12 A 1.50015 1.50015 0 1 0 44.5 9 L 41.876953 9 A 1.50015 1.50015 0 0 0 41.660156 8.9785156 z M 7.7695312 12 L 40.230469 12 L 41.847656 36.292969 C 41.874522 36.696924 41.592777 37 41.1875 37 C 40.875944 37 40.620784 36.80118 40.544922 36.498047 L 36.521484 20.408203 C 36.023569 18.412055 34.213715 17 32.15625 17 L 15.841797 17 C 13.785564 17 11.975614 18.412 11.476562 20.408203 L 7.4550781 36.498047 C 7.3792162 36.80118 7.1240565 37 6.8125 37 C 6.4072234 37 6.123525 36.696924 6.1503906 36.292969 L 7.7695312 12 z" fill="#ffffff"/></svg>
