<?xml version="1.0" encoding="utf-8"?>
<svg xmlns="http://www.w3.org/2000/svg" viewBox="0 0 48 48" fill="#ffffff"><path d="M 24 4 C 18.494917 4 14 8.494921 14 14 C 14 19.505079 18.494917 24 24 24 C 29.505083 24 34 19.505079 34 14 C 34 8.494921 29.505083 4 24 4 z M 12.5 28 C 10.032499 28 8 30.032499 8 32.5 L 8 33.699219 C 8 36.640082 9.8647133 39.277974 12.708984 41.091797 C 15.553256 42.90562 19.444841 44 24 44 C 28.555159 44 32.446744 42.90562 35.291016 41.091797 C 38.135287 39.277974 40 36.640082 40 33.699219 L 40 32.5 C 40 30.032499 37.967501 28 35.5 28 L 12.5 28 z" fill="#ffffff"/></svg>
