<?xml version="1.0" encoding="utf-8"?>
<svg xmlns="http://www.w3.org/2000/svg" viewBox="0 0 48 48" fill="#ffffff"><path d="M 23.976562 3.9785156 A 1.50015 1.50015 0 0 0 23.759766 4 L 7.5 4 A 1.50015 1.50015 0 0 0 6 5.5 L 6 40.5 A 1.50015 1.50015 0 0 0 7.5 42 L 9 42 L 9 43.5 A 1.50015 1.50015 0 1 0 12 43.5 L 12 42 L 23.753906 42 A 1.50015 1.50015 0 0 0 24.240234 42 L 36 42 L 36 43.5 A 1.50015 1.50015 0 1 0 39 43.5 L 39 42 L 40.5 42 A 1.50015 1.50015 0 0 0 42 40.5 L 42 5.5 A 1.50015 1.50015 0 0 0 40.5 4 L 24.246094 4 A 1.50015 1.50015 0 0 0 23.976562 3.9785156 z M 9 7 L 22.5 7 L 22.5 39 L 10.746094 39 A 1.50015 1.50015 0 0 0 10.259766 39 L 9 39 L 9 7 z M 25.5 7 L 39 7 L 39 39 L 37.746094 39 A 1.50015 1.50015 0 0 0 37.259766 39 L 25.5 39 L 25.5 7 z M 18.5 23 A 1.5 1.5 0 0 0 18.5 26 A 1.5 1.5 0 0 0 18.5 23 z M 29.5 23 A 1.5 1.5 0 0 0 29.5 26 A 1.5 1.5 0 0 0 29.5 23 z" fill="#ffffff"/></svg>
